<?xml version="1.0" standalone="no"?>
<!DOCTYPE svg PUBLIC "-//W3C//DTD SVG 20010904//EN"
 "http://www.w3.org/TR/2001/REC-SVG-20010904/DTD/svg10.dtd">
<svg version="1.0" xmlns="http://www.w3.org/2000/svg"
 width="432.000000pt" height="324.000000pt" viewBox="0 0 432.000000 324.000000"
 preserveAspectRatio="xMidYMid meet">

<g transform="translate(0.000000,324.000000) scale(0.100000,-0.100000)"
fill="#000000" stroke="none">
<path d="M648 2799 c-59 -14 -155 -66 -203 -110 -93 -86 -145 -206 -145 -332
1 -125 31 -206 138 -370 56 -85 72 -129 72 -193 0 -61 31 -86 101 -82 50 3 54
5 54 28 0 22 -5 26 -45 30 l-45 5 -6 65 c-6 73 -8 77 -91 208 -70 111 -93 160
-109 241 -23 116 21 250 112 341 189 189 506 136 624 -103 76 -154 54 -297
-75 -487 -60 -89 -83 -141 -89 -205 l-6 -60 -45 -5 c-40 -4 -45 -8 -45 -30 0
-23 4 -25 49 -28 84 -5 116 27 116 114 0 49 21 96 82 187 98 144 133 266 116
405 -20 173 -161 332 -333 376 -64 17 -167 19 -227 5z"/>
<path d="M3290 2345 l0 -335 60 0 60 0 0 335 0 335 -60 0 -60 0 0 -335z"/>
<path d="M1390 2335 l0 -325 60 0 60 0 2 231 3 231 94 -136 c52 -75 95 -136
97 -136 1 0 44 61 95 135 l94 136 3 -231 2 -230 60 0 60 0 0 325 0 325 -65 0
-64 0 -87 -125 c-48 -69 -91 -128 -95 -131 -4 -2 -47 53 -96 123 l-88 128 -68
3 -67 3 0 -326z"/>
<path d="M2262 2483 c-76 -37 -118 -134 -110 -257 13 -190 152 -267 361 -200
l47 16 0 49 c0 27 -3 49 -7 49 -5 0 -30 -7 -57 -15 -58 -18 -135 -19 -169 -4
-25 11 -47 47 -47 74 0 13 25 15 150 15 l150 0 0 68 c-1 102 -47 183 -123 211
-43 17 -157 13 -195 -6z m169 -114 c10 -13 21 -36 25 -51 l6 -28 -92 0 -93 0
6 36 c3 20 14 45 23 55 31 35 96 29 125 -12z"/>
<path d="M2763 2479 l-63 -20 0 -224 0 -225 60 0 60 0 0 189 0 189 48 6 c48 7
103 -4 128 -25 11 -9 14 -48 14 -185 l0 -174 60 0 60 0 0 174 c0 99 -5 187
-11 203 -14 38 -57 83 -96 99 -48 21 -185 17 -260 -7z"/>
<path d="M3655 2486 c-123 -54 -168 -270 -82 -397 38 -56 99 -84 187 -83 145
0 216 68 227 218 10 129 -36 224 -125 262 -43 18 -167 18 -207 0z m180 -110
c42 -42 46 -182 7 -236 -22 -29 -71 -43 -114 -32 -60 15 -89 94 -73 197 10 68
40 95 105 95 40 0 56 -5 75 -24z"/>
<path d="M617 2163 c-4 -3 -7 -80 -7 -170 l0 -163 25 0 24 0 3 118 3 117 35
-67 c47 -93 68 -93 113 -2 l32 66 5 -114 c5 -113 5 -113 30 -113 l25 0 3 154
c3 163 -2 185 -42 179 -15 -2 -34 -27 -65 -87 l-44 -85 -35 70 c-19 38 -41 77
-50 87 -15 17 -43 23 -55 10z"/>
<path d="M1461 1872 c-39 -21 -71 -73 -71 -115 0 -68 45 -107 162 -141 32 -9
69 -26 83 -39 34 -28 37 -80 7 -110 -29 -28 -123 -35 -188 -13 -26 9 -49 16
-51 16 -3 0 -3 -15 -1 -32 3 -28 8 -34 43 -44 97 -30 221 -7 259 47 20 30 21
110 1 149 -17 33 -67 62 -156 90 -70 21 -99 44 -99 75 0 73 112 102 223 59 14
-5 17 0 17 24 0 25 -6 32 -31 41 -51 18 -159 14 -198 -7z"/>
<path d="M3230 1855 c0 -32 2 -35 30 -35 28 0 30 3 30 35 0 32 -2 35 -30 35
-28 0 -30 -3 -30 -35z"/>
<path d="M3420 1815 c0 -54 0 -55 -30 -55 -25 0 -30 -4 -30 -25 0 -21 5 -25
29 -25 l29 0 4 -132 c2 -74 9 -142 16 -154 15 -28 61 -46 103 -42 29 2 35 7
37 31 3 25 1 27 -37 27 -55 0 -61 15 -61 154 l0 116 50 0 c46 0 50 2 50 24 0
23 -5 25 -47 28 l-48 3 -3 53 c-3 50 -4 52 -33 52 -29 0 -29 -1 -29 -55z"/>
<path d="M1880 1752 c-52 -28 -80 -89 -80 -176 0 -133 57 -197 177 -195 85 0
127 17 131 52 3 28 3 29 -30 20 -18 -4 -63 -8 -100 -8 -75 0 -101 16 -113 68
l-7 27 136 0 136 0 0 48 c0 57 -32 127 -72 156 -40 29 -132 33 -178 8z m149
-63 c12 -11 26 -32 32 -46 19 -52 17 -53 -97 -53 l-107 0 6 38 c9 51 46 82
101 82 29 0 49 -6 65 -21z"/>
<path d="M2295 1756 c-42 -18 -83 -69 -91 -112 -3 -19 -4 -64 -2 -99 4 -69 21
-101 71 -139 31 -23 123 -33 177 -19 30 8 35 14 38 41 3 31 2 32 -23 22 -33
-13 -116 -13 -149 0 -35 13 -56 59 -56 125 0 102 43 142 143 133 28 -3 60 -9
70 -13 14 -6 17 -2 17 23 0 27 -5 32 -37 41 -51 15 -122 13 -158 -3z"/>
<path d="M3045 1756 c-28 -7 -56 -16 -63 -20 -9 -5 -12 -55 -12 -177 l0 -169
30 0 29 0 3 153 3 152 63 9 c59 9 62 11 62 38 0 25 -3 28 -32 27 -18 0 -56 -6
-83 -13z"/>
<path d="M2560 1628 c0 -151 11 -187 69 -225 42 -28 120 -31 171 -5 61 31 75
68 78 225 l4 137 -31 0 -31 0 0 -120 c0 -148 -12 -184 -65 -199 -48 -13 -105
5 -122 39 -8 16 -13 70 -13 153 l0 127 -30 0 -30 0 0 -132z"/>
<path d="M3230 1575 l0 -185 30 0 30 0 0 185 0 185 -30 0 -30 0 0 -185z"/>
<path d="M3630 1756 c0 -3 30 -85 66 -182 42 -112 64 -183 60 -198 -10 -42
-45 -76 -77 -76 -27 0 -30 -3 -27 -27 6 -57 93 -37 133 31 18 32 175 437 175
453 0 3 -14 3 -32 1 -32 -3 -33 -5 -83 -142 l-52 -139 -49 139 c-49 137 -51
139 -82 142 -18 2 -32 1 -32 -2z"/>
<path d="M552 1658 c-7 -7 -12 -18 -12 -25 0 -28 41 -33 226 -31 159 3 188 5
197 19 6 9 7 24 4 33 -6 14 -30 16 -205 16 -141 0 -201 -3 -210 -12z"/>
<path d="M549 1534 c-9 -11 -10 -20 -2 -32 9 -15 35 -17 194 -20 101 -1 194 0
207 3 26 6 31 49 6 59 -9 3 -100 6 -204 6 -159 0 -190 -2 -201 -16z"/>
<path d="M600 1422 c0 -18 37 -41 83 -53 60 -15 147 -6 189 18 65 38 50 43
-116 43 -86 0 -156 -4 -156 -8z"/>
<path d="M480 1155 c0 -13 200 -15 1740 -15 1540 0 1740 2 1740 15 0 13 -200
15 -1740 15 -1540 0 -1740 -2 -1740 -15z"/>
<path d="M490 835 c0 -113 2 -135 15 -135 13 0 15 22 15 135 0 113 -2 135 -15
135 -13 0 -15 -22 -15 -135z"/>
<path d="M565 960 c-11 -19 6 -30 46 -30 l39 0 0 -115 c0 -96 3 -115 15 -115
12 0 15 19 15 115 l0 115 45 0 c38 0 45 3 45 20 0 19 -7 20 -99 20 -56 0 -103
-4 -106 -10z"/>
<path d="M804 955 c-4 -8 -3 -23 0 -32 4 -9 1 -20 -6 -24 -7 -4 -9 -11 -5 -16
16 -15 42 15 45 51 2 28 0 36 -13 36 -8 0 -18 -7 -21 -15z"/>
<path d="M915 958 c-28 -16 -35 -28 -35 -64 0 -39 21 -58 90 -81 59 -19 72
-39 45 -67 -22 -21 -63 -20 -102 3 -32 20 -43 18 -43 -5 0 -21 55 -44 105 -44
56 0 85 25 85 73 0 42 -21 61 -80 77 -54 14 -70 26 -70 51 0 32 43 45 89 27
34 -13 42 -14 51 -3 26 31 -89 59 -135 33z"/>
<path d="M1226 947 c-53 -53 -26 -104 68 -131 47 -14 56 -20 56 -39 0 -48 -44
-60 -107 -31 -24 12 -37 14 -45 6 -17 -17 49 -52 100 -52 75 0 120 72 73 119
-10 10 -44 26 -76 35 -52 16 -56 19 -53 44 4 38 44 50 88 28 23 -11 37 -13 44
-6 18 18 -19 42 -73 48 -43 4 -53 1 -75 -21z"/>
<path d="M1463 852 c-70 -158 -68 -152 -49 -152 9 0 24 16 33 35 17 35 17 35
85 35 l68 0 14 -35 c10 -23 22 -35 35 -35 18 0 16 9 -28 108 -73 162 -73 162
-90 162 -11 0 -33 -39 -68 -118z m117 -43 c0 -5 -22 -9 -50 -9 -27 0 -50 2
-50 4 0 2 12 29 26 60 l26 57 24 -51 c13 -29 24 -56 24 -61z"/>
<path d="M1700 835 c0 -128 1 -135 20 -135 18 0 20 7 20 55 l0 54 68 3 c52 2
67 6 67 18 0 12 -15 16 -67 18 l-68 3 0 39 0 40 75 0 c68 0 75 2 75 20 0 19
-7 20 -95 20 l-95 0 0 -135z"/>
<path d="M1937 964 c-4 -4 -7 -65 -7 -136 l0 -128 100 0 c82 0 100 3 100 15 0
12 -16 15 -80 15 l-80 0 0 45 0 45 70 0 c56 0 70 3 70 15 0 12 -14 15 -70 15
l-70 0 0 40 0 39 78 3 c60 2 77 6 77 18 0 12 -18 16 -90 18 -50 1 -94 0 -98
-4z"/>
<path d="M2250 950 c0 -17 7 -20 45 -20 l45 0 0 -115 c0 -96 3 -115 15 -115
12 0 15 19 15 115 l0 115 45 0 c38 0 45 3 45 20 0 19 -7 20 -105 20 -98 0
-105 -1 -105 -20z"/>
<path d="M2523 950 c-42 -25 -63 -68 -63 -126 0 -41 5 -51 39 -85 34 -35 44
-39 87 -39 61 0 105 25 127 73 21 44 21 66 1 117 -30 73 -122 103 -191 60z
m140 -50 c59 -66 12 -170 -77 -170 -33 0 -73 35 -86 75 -10 30 -9 41 7 72 34
70 104 80 156 23z"/>
<path d="M2924 951 c-34 -21 -64 -75 -64 -115 0 -40 24 -90 55 -114 38 -30
121 -31 159 -1 21 16 24 24 15 35 -9 11 -16 10 -39 -8 -38 -27 -95 -20 -127
17 -41 47 -23 138 32 163 36 17 55 15 92 -7 27 -17 33 -18 43 -6 9 11 5 18
-22 35 -42 25 -103 26 -144 1z"/>
<path d="M3137 963 c-4 -3 -7 -64 -7 -135 l0 -128 90 0 c73 0 90 3 90 15 0 12
-14 15 -70 15 l-70 0 0 120 c0 93 -3 120 -13 120 -8 0 -17 -3 -20 -7z"/>
<path d="M3360 835 c0 -113 2 -135 15 -135 13 0 15 22 15 135 0 113 -2 135
-15 135 -13 0 -15 -22 -15 -135z"/>
<path d="M3503 950 c-42 -25 -63 -68 -63 -126 0 -41 5 -51 39 -85 34 -35 44
-39 87 -39 61 0 123 33 104 55 -10 12 -16 11 -43 -6 -41 -24 -78 -24 -110 1
-37 30 -52 80 -34 122 26 63 78 81 139 50 21 -11 40 -17 43 -14 13 13 3 33
-25 47 -40 21 -99 19 -137 -5z"/>
<path d="M3710 836 c0 -129 1 -136 20 -136 17 0 20 7 20 38 0 28 7 45 26 62
16 16 28 21 32 14 42 -66 89 -114 110 -114 22 0 20 4 -25 60 -26 34 -52 67
-58 75 -7 11 3 27 43 68 56 57 61 67 34 67 -10 0 -49 -32 -87 -70 l-70 -71 -5
68 c-4 54 -9 68 -22 71 -16 3 -18 -8 -18 -132z"/>
</g>
</svg>
